<svg width="16" height="16" viewBox="0 0 16 16" fill="none" xmlns="http://www.w3.org/2000/svg">
<g clip-path="url(#clip0_185_5989)">
<path d="M8.00007 15.6799C12.2416 15.6799 15.6801 12.2415 15.6801 7.99995C15.6801 3.7584 12.2416 0.319946 8.00007 0.319946C3.75852 0.319946 0.320068 3.7584 0.320068 7.99995C0.320068 12.2415 3.75852 15.6799 8.00007 15.6799Z" stroke="black" stroke-miterlimit="10"/>
<path d="M7.99998 15.6799C9.54814 15.6799 10.8032 12.2415 10.8032 7.99995C10.8032 3.7584 9.54814 0.319946 7.99998 0.319946C6.45181 0.319946 5.19678 3.7584 5.19678 7.99995C5.19678 12.2415 6.45181 15.6799 7.99998 15.6799Z" stroke="black" stroke-miterlimit="10"/>
<path d="M0.601562 6.45764H15.3984" stroke="black" stroke-miterlimit="10"/>
<path d="M0.601562 9.54883H15.3984" stroke="black" stroke-miterlimit="10"/>
<path d="M3.05273 2.13115C4.39033 3.25755 6.11193 3.94235 7.99993 3.94235C9.88793 3.94235 11.6095 3.25755 12.9471 2.13115C11.6095 1.00475 9.88793 0.319946 7.99993 0.319946C6.11193 0.319946 4.39033 1.00475 3.05273 2.13115Z" stroke="black" stroke-miterlimit="10"/>
<path d="M12.9471 13.8688C11.6095 12.7424 9.88793 12.0576 7.99993 12.0576C6.11193 12.0576 4.39033 12.7424 3.05273 13.8688C4.39033 14.9952 6.11193 15.68 7.99993 15.68C9.88793 15.68 11.6095 14.9952 12.9471 13.8688Z" stroke="black" stroke-miterlimit="10"/>
</g>
<defs>
<clipPath id="clip0_185_5989">
<rect width="16" height="16" fill="white"/>
</clipPath>
</defs>
</svg>
