<svg id="Outline" xmlns="http://www.w3.org/2000/svg" width="40" height="40" viewBox="0 0 40 40">
  <defs>
    <style>
      svg path {
        fill: #1f58a7;
      }
      .cls-1 {
        fill: none;
      }
    </style>
  </defs>
  <g>
    <path d="M32.7041,10.2998c-.00946-.01361-.02441-.02008-.03442-.03308a15.94078,15.94078,0,0,0-25.33924-.00018c-.01.01306-.02508.01953-.03454.03326-.00653.00947-.0069.02082-.01306.0304a15.8829,15.8829,0,0,0,0,19.3396c.00616.00958.00653.02093.01306.0304.0094.01361.02441.02.03436.033a15.94066,15.94066,0,0,0,25.34583-.00849c.00781-.01031.02057-.01379.028-.02453.00653-.00947.0069-.02082.01306-.0304a15.8829,15.8829,0,0,0,0-19.3396C32.711,10.32062,32.71063,10.30927,32.7041,10.2998ZM31.62189,27.79565a17.4693,17.4693,0,0,0-3.31928-1.50738A27.29815,27.29815,0,0,0,28.97247,21h4.97687A13.90965,13.90965,0,0,1,31.62189,27.79565ZM6.05066,21h4.97687a27.29815,27.29815,0,0,0,.66986,5.28827,17.4693,17.4693,0,0,0-3.31928,1.50738A13.90965,13.90965,0,0,1,6.05066,21Zm2.32745-8.79565a17.4693,17.4693,0,0,0,3.31928,1.50738A27.29815,27.29815,0,0,0,11.02753,19H6.05066A13.90965,13.90965,0,0,1,8.37811,12.20435ZM21,14.96912a26.99306,26.99306,0,0,0,5.35449-.70624A25.16856,25.16856,0,0,1,26.97375,19H21ZM21,12.97V6.16724c1.985.59826,3.72937,2.923,4.81775,6.173A25.0235,25.0235,0,0,1,21,12.97ZM19,6.16724V12.97a25.0235,25.0235,0,0,1-4.81775-.6297C15.27063,9.09027,17.015,6.7655,19,6.16724Zm0,8.80188V19H13.02625a25.16856,25.16856,0,0,1,.61926-4.73712A26.99306,26.99306,0,0,0,19,14.96912ZM13.02625,21H19v4.03088a26.99306,26.99306,0,0,0-5.35449.70624A25.16856,25.16856,0,0,1,13.02625,21ZM19,27.03v6.80273c-1.985-.59826-3.72937-2.923-4.81775-6.173A25.0235,25.0235,0,0,1,19,27.03Zm2,6.80273V27.03a25.0235,25.0235,0,0,1,4.81775.6297C24.72937,30.90973,22.985,33.2345,21,33.83276Zm0-8.80188V21h5.97375a25.16856,25.16856,0,0,1-.61926,4.73712A26.99306,26.99306,0,0,0,21,25.03088ZM28.97247,19a27.29815,27.29815,0,0,0-.66986-5.28827,17.4693,17.4693,0,0,0,3.31928-1.50738A13.90965,13.90965,0,0,1,33.94934,19Zm1.39807-8.37164a15.64909,15.64909,0,0,1-2.61669,1.16674,15.92227,15.92227,0,0,0-2.40937-4.72979A14.04056,14.04056,0,0,1,30.37054,10.62836Zm-15.715-3.56305a15.92166,15.92166,0,0,0-2.40943,4.72979,15.64909,15.64909,0,0,1-2.61669-1.16674A14.0413,14.0413,0,0,1,14.65558,7.06531ZM9.62946,29.37164a15.64909,15.64909,0,0,1,2.61669-1.16674,15.92166,15.92166,0,0,0,2.40943,4.72979A14.0413,14.0413,0,0,1,9.62946,29.37164Zm15.715,3.56305a15.92227,15.92227,0,0,0,2.40937-4.72979,15.64909,15.64909,0,0,1,2.61669,1.16674A14.04056,14.04056,0,0,1,25.34448,32.93469Z"/>
    <rect class="cls-1" width="40" height="40"/>
  </g>
</svg>
